<?xml version="1.0" encoding="UTF-8"?>
<svg viewBox="0 0 400 400" xmlns="http://www.w3.org/2000/svg" xmlns:xlink="http://www.w3.org/1999/xlink">
 <defs>
  <filter id="f">
   <feGaussianBlur stdDeviation="3.7"/>
  </filter>
  <linearGradient id="a">
   <stop stop-color="#fff" offset="0"/>
   <stop stop-color="#fff" stop-opacity="0" offset="1"/>
  </linearGradient>
  <radialGradient id="c" cx="199.28" cy="192.84" r="53.688" gradientTransform="matrix(0 2.8729 -1 0 392.84 -372.51)" gradientUnits="userSpaceOnUse">
   <stop stop-color="#f7f7f7" offset="0"/>
   <stop stop-color="#e1e1e1" offset="1"/>
  </radialGradient>
  <radialGradient id="b" cx="199.28" cy="192.84" r="68.844" gradientTransform="matrix(0 2.7782 -.82388 0 358.88 -353.65)" gradientUnits="userSpaceOnUse">
   <stop stop-color="#6c6c6c" offset="0"/>
   <stop stop-color="#3e3e3e" offset="1"/>
  </radialGradient>
  <radialGradient id="e" cx="289.43" cy="209.67" r="92.5" gradientTransform="matrix(-.86959 .86959 -1.9615 -1.9615 681.51 178.14)" gradientUnits="userSpaceOnUse" xlink:href="#a"/>
  <radialGradient id="d" cx="289.43" cy="209.67" r="92.5" gradientTransform="matrix(.86959 -.86959 1.9615 1.9615 -281.51 221.86)" gradientUnits="userSpaceOnUse" xlink:href="#a"/>
 </defs>
 <path d="m202.71 19c-102.12 0-185 82.88-185 185s82.88 185 185 185 185-82.88 185-185-82.88-185-185-185zm0 179.81c2.8664 0 5.1875 2.321 5.1875 5.1875s-2.321 5.1875-5.1875 5.1875-5.1875-2.321-5.1875-5.1875 2.321-5.1875 5.1875-5.1875z" fill-opacity=".50857" fill-rule="evenodd" filter="url(#f)"/>
 <path d="m200 15c-102.12 0-185 82.88-185 185s82.88 185 185 185 185-82.88 185-185-82.88-185-185-185zm0 179.81c2.8664 0 5.1875 2.321 5.1875 5.1875s-2.321 5.1875-5.1875 5.1875-5.1875-2.321-5.1875-5.1875 2.321-5.1875 5.1875-5.1875z" fill-rule="evenodd"/>
 <path d="m200 132.66c-37.159 0-67.344 30.184-67.344 67.344s30.184 67.344 67.344 67.344 67.344-30.184 67.344-67.344-30.184-67.344-67.344-67.344zm0 62.906c2.4541 0 4.4375 1.9834 4.4375 4.4375s-1.9834 4.4375-4.4375 4.4375-4.4375-1.9834-4.4375-4.4375 1.9834-4.4375 4.4375-4.4375z" fill="#333" fill-rule="evenodd"/>
 <path d="m200 15c-102.12 0-185 82.88-185 185s82.88 185 185 185 185-82.88 185-185-82.88-185-185-185zm0 3.5938c100.15 0 181.44 81.258 181.44 181.41s-81.289 181.44-181.44 181.44-181.44-81.289-181.44-181.44 81.289-181.41 181.44-181.41z" fill-rule="evenodd"/>
 <path d="m293.56 200c0 51.651-41.911 93.594-93.562 93.594v87.844c100.15 0 181.44-81.289 181.44-181.44h-87.875z" fill="url(#d)" fill-rule="evenodd"/>
 <path d="m106.44 200c0-51.651 41.911-93.594 93.562-93.594v-87.844c-100.15 0-181.44 81.289-181.44 181.44h87.875z" fill="url(#e)" fill-rule="evenodd"/>
 <path d="m248.68 151.32c-26.867-26.867-70.493-26.867-97.36 0s-26.867 70.493 0 97.36 70.493 26.867 97.36 0 26.867-70.493 0-97.36zm-2.1434 2.1434c25.684 25.684 25.684 67.389 0 93.073s-67.389 25.684-93.073 0-25.684-67.389 0-93.073 67.389-25.684 93.073 0z" fill="url(#b)" fill-rule="evenodd"/>
 <path d="m237.96 162.04c-20.953-20.953-54.973-20.953-75.926 0s-20.953 54.973 0 75.926 54.973 20.953 75.926 0 20.953-54.973 0-75.926zm-34.295 34.295c2.0269 2.0269 2.0269 5.3093 0 7.3362s-5.3093 2.0269-7.3362 0-2.0269-5.3093 0-7.3362 5.3093-2.0269 7.3362 0z" fill="url(#c)" fill-rule="evenodd"/>
 <path d="m243.95 156.05c-7.0618-7.0618-15.406-12.053-24.285-15.004l-1.2374 3.7123c8.3153 2.7644 16.125 7.4625 22.738 14.076 8.0563 8.0563 13.256 17.884 15.601 28.24l3.8228-0.86178c-2.502-11.056-8.0376-21.561-16.639-30.163z" fill="#fff" fill-rule="evenodd" opacity=".74257"/>
 <path d="m142.61 190.26-3.8891-0.66291c-3.2372 19.173 2.5385 39.573 17.324 54.359 14.746 14.746 35.076 20.526 54.204 17.346l-0.64082-3.867c-17.925 2.9839-36.962-2.4462-50.779-16.263-13.852-13.852-19.253-32.947-16.219-50.912z" fill="#fff" fill-rule="evenodd" opacity=".74257"/>
</svg>
