<?xml version="1.0" encoding="UTF-8"?>
<svg viewBox="0 0 400 400" xmlns="http://www.w3.org/2000/svg" xmlns:xlink="http://www.w3.org/1999/xlink">
 <defs>
  <linearGradient id="a">
   <stop stop-color="#fff" offset="0"/>
   <stop stop-color="#fff" stop-opacity="0" offset="1"/>
  </linearGradient>
  <radialGradient id="f" cx="289.43" cy="209.67" r="92.5" gradientTransform="matrix(.86959 -.86959 1.9615 1.9615 -265.51 236.86)" gradientUnits="userSpaceOnUse" xlink:href="#a"/>
  <radialGradient id="e" cx="289.43" cy="209.67" r="92.5" gradientTransform="matrix(-.86959 .86959 -1.9615 -1.9615 697.51 193.14)" gradientUnits="userSpaceOnUse" xlink:href="#a"/>
  <radialGradient id="g" cx="199.28" cy="192.84" r="68.844" gradientTransform="matrix(0 2.7782 -.82388 0 374.88 -338.65)" gradientUnits="userSpaceOnUse">
   <stop stop-color="#6c6c6c" offset="0"/>
   <stop stop-color="#3e3e3e" offset="1"/>
  </radialGradient>
 </defs>
 <g fill-rule="evenodd" stroke-width="2.7">
  <path d="m200 15c-102.12 0-185 82.88-185 185s82.88 185 185 185 185-82.88 185-185-82.88-185-185-185zm0 179.81c2.866 0 5.187 2.321 5.188 5.187 0 2.866-2.322 5.187-5.188 5.188-2.866 0-5.187-2.322-5.187-5.188s2.321-5.187 5.187-5.187z"/>
  <path d="m200 132.66c-37.159 0-67.344 30.185-67.344 67.344s30.185 67.344 67.344 67.344 67.344-30.185 67.344-67.344-30.185-67.344-67.344-67.344zm0 62.907c2.454 0 4.438 1.983 4.438 4.437s-1.984 4.438-4.438 4.438-4.437-1.984-4.437-4.438 1.983-4.437 4.437-4.437z" fill="#333"/>
  <path d="m200 15c-102.12 0-185 82.88-185 185s82.88 185 185 185 185-82.88 185-185-82.88-185-185-185zm0 3.5938c100.15 0 181.44 81.258 181.44 181.41s-81.289 181.44-181.44 181.44-181.44-81.289-181.44-181.44 81.289-181.41 181.44-181.41z"/>
  <path d="m293.56 200c0 51.651-41.912 93.594-93.563 93.594v87.844c100.15 0 181.44-81.289 181.44-181.44h-87.875z" fill="url(#f)"/>
  <path d="m106.44 200c0-51.651 41.911-93.594 93.562-93.594v-87.844c-100.15 0-181.44 81.289-181.44 181.44h87.876z" fill="url(#e)"/>
  <path d="m248.68 151.32c-26.867-26.867-70.493-26.867-97.36 0s-26.867 70.493 0 97.36 70.493 26.867 97.36 0 26.867-70.493 0-97.36zm-2.144 2.144c25.684 25.684 25.685 67.388 0 93.072-25.684 25.685-67.388 25.685-93.072 0-25.684-25.684-25.684-67.388 0-93.072s67.388-25.684 93.072 0z" fill="url(#g)"/>
  <path d="m237.96 162.04c-20.953-20.952-54.973-20.952-75.926 0-20.952 20.953-20.952 54.973 0 75.926 20.953 20.952 54.973 20.952 75.926 0 20.952-20.953 20.952-54.973 0-75.926zm-34.295 34.295c2.027 2.027 2.027 5.309 0 7.336s-5.309 2.027-7.336 0-2.027-5.309 0-7.336 5.309-2.027 7.336 0z" fill="#005fbf"/>
  <g fill="#fff">
   <path d="m243.95 156.05c-7.062-7.062-15.406-12.053-24.285-15.004l-1.237 3.712c8.315 2.765 16.125 7.463 22.738 14.076 8.056 8.056 13.256 17.884 15.6 28.24l3.823-0.862c-2.502-11.055-8.037-21.561-16.639-30.162z" opacity=".743"/>
   <path d="m142.61 190.26l-3.889-0.663c-3.237 19.173 2.538 39.573 17.324 54.359 14.746 14.746 35.076 20.527 54.204 17.346l-0.641-3.867c-17.925 2.984-36.962-2.446-50.779-16.263-13.852-13.852-19.253-32.947-16.219-50.912z" opacity=".743"/>
  </g>
 </g>
</svg>
